<?xml version="1.0" encoding="UTF-8" standalone="no"?>
<svg xmlns="http://www.w3.org/2000/svg" xmlns:inkscape="http://www.inkscape.org/namespaces/inkscape" width="720" height="860" viewBox="0 0 720 860">
  <defs>
    <radialGradient id="gradient1" cx="0.5" cy="0.5" r="0.5">
      <stop offset="0" stop-color="#e4c15b"/>
      <stop offset="1" stop-color="#b8912f"/>
    </radialGradient>
  </defs>
  <g inkscape:groupmode="layer" inkscape:label="Layer 1" id="node-63a8e87b">
    <rect width="720" height="860" id="node-0f86df77" transform="matrix(1,0,0,1,29.6179,10)" fill="#ffffff"/>
    <text x="0" y="0" font-size="21" font-family="sans-serif" text-anchor="middle" letter-spacing="3" fill="#2e2a22" id="node-012b3e2a" transform="matrix(1,0,0,1,360,56)">THE SHAPE, DRAWN ON ITS OWN</text>
    <text x="0" y="0" font-size="12" font-family="sans-serif" text-anchor="middle" letter-spacing="2" fill="#6b5f45" id="node-b49bb440" transform="matrix(1,0,0,1,360,77.1328)">COMPASS — FIRMAMENT — LADDER — CUBE</text>
    <g id="node-26f19f0b" opacity="0.16">
      <path d="M150 300 C176.667 292 203.333 292 230 300 C256.667 308 283.333 308 310 300 C336.667 292 363.333 292 390 300 C416.667 308 436.667 308 450 300" id="node-3b5cf009" fill="none" stroke="#2e2a22" stroke-width="1"/>
      <path d="M150 330 C176.667 322 203.333 322 230 330 C256.667 338 283.333 338 310 330 C336.667 322 363.333 322 390 330 C416.667 338 436.667 338 450 330" id="node-eb907e7f" fill="none" stroke="#2e2a22" stroke-width="1"/>
      <path d="M150 550 C176.667 542 203.333 542 230 550 C256.667 558 283.333 558 310 550 C336.667 542 363.333 542 390 550 C416.667 558 436.667 558 450 550" id="node-42e5bbf9" fill="none" stroke="#2e2a22" stroke-width="1"/>
      <path d="M150 580 C176.667 572 203.333 572 230 580 C256.667 588 283.333 588 310 580 C336.667 572 363.333 572 390 580 C416.667 588 436.667 588 450 580" id="node-1bd4d057" fill="none" stroke="#2e2a22" stroke-width="1"/>
    </g>
    <circle r="180" id="node-a9d509c0" transform="matrix(1,0,0,1,300,440)" fill="none" stroke="#2e2a22" stroke-width="2"/>
    <path d="M300 140 L300 740" id="node-0ea3172d" fill="#000000" stroke="#2e2a22" stroke-width="2"/>
    <text x="0" y="0" font-size="12" text-anchor="middle" letter-spacing="2" fill="#6b5f45" id="node-14e18c52" transform="matrix(1,0,0,1,300,124.1328)">HEAVEN</text>
    <text x="0" y="0" font-size="12" text-anchor="middle" letter-spacing="2" fill="#6b5f45" id="node-ad02c226" transform="matrix(1,0,0,1,300,758)">EARTH</text>
    <path d="M90 440 L510 440" id="node-cb63ea95" fill="#000000" stroke="#2e2a22" stroke-width="2"/>
    <circle r="7" id="node-8dbebd59" transform="matrix(1,0,0,1,300,440)" fill="url(#gradient1)" stroke="#2e2a22" stroke-width="1"/>
    <path d="M340 460 C420 520 480 560 558 605" id="node-c073f455" opacity="0.8" fill="none" stroke="#b8912f" stroke-width="1" stroke-dasharray="2,5"/>
    <g id="node-8930483f">
      <path d="M560 650 L650 650 L650 560 L560 560 Z" id="node-253b42b2" fill="#4363d8" stroke="#2e2a22" stroke-width="1.5" stroke-linejoin="round"/>
      <path d="M650 650 L695 624 L695 534 L650 560 Z" id="node-6443b481" fill="#4363d8" stroke="#2e2a22" stroke-width="1.5" stroke-linejoin="round"/>
      <path d="M560 560 L650 560 L695 534 L605 534 Z" id="node-2e3f0433" fill="#4363d8" stroke="#2e2a22" stroke-width="1.5" stroke-linejoin="round"/>
    </g>
    <text x="0" y="0" font-size="12" text-anchor="middle" letter-spacing="1" fill="#6b5f45" id="node-134e9cf7" transform="matrix(1,0,0,1,627,661.1328)">L = W = H</text>
    <text x="0" y="0" font-size="13" font-family="sans-serif" text-anchor="middle" letter-spacing="1" fill="#2e2a22" id="node-4deabc4b" transform="matrix(1,0,0,1,360,812)">CIRCLE · CROSS · CUBE — THE ENCLOSURE, DRAWN BEFORE IT IS FILLED</text>
  </g>
</svg>